<svg width="1440" height="1024" viewBox="0 0 1440 1024" fill="none" xmlns="http://www.w3.org/2000/svg">
<g clip-path="url(#clip0_0_7)">
<rect width="1440" height="1024" fill="white"/>
<path d="M-33 1024C-33 1024 -17.1081 716.313 -17.1081 516.267C-17.1081 316.221 -33 -5.05447e-05 -33 -5.05447e-05H807C807 -5.05447e-05 784.297 308.754 784.297 508.8C784.297 708.846 807 1024 807 1024L-33 1024Z" fill="#00229B"/>
<path d="M-105 1024C-105 1024 -91.111 716.313 -91.111 516.267C-91.111 316.221 -105 0 -105 0H699C699 0 609.291 308.754 609.291 508.8C609.291 708.846 679.708 1024 679.708 1024H-105Z" fill="#E2EFFF"/>
<path d="M1512 0V1024H763.744C763.744 1024 667 862.933 667 512C667 161.067 763.744 0 763.744 0L1512 0Z" fill="white"/>
</g>
<defs>
<clipPath id="clip0_0_7">
<rect width="1440" height="1024" fill="white"/>
</clipPath>
</defs>
</svg>
