<svg width="233" height="75" viewBox="0 0 233 75" fill="none" xmlns="http://www.w3.org/2000/svg">
<path d="M14.9716 59.4306C13.9739 60.8146 12.0142 61.0974 10.7778 59.9217C6.44115 55.7979 3.22108 50.5259 1.47557 44.6374C-0.57382 37.7237 -0.486457 30.3115 1.72526 23.4527C3.93697 16.5938 8.16068 10.6368 13.7969 6.42707C19.4332 2.21732 26.1957 -0.0313078 33.1246 0.000329125C40.0535 0.031966 46.7969 2.34226 52.3977 6.60332C57.9985 10.8644 62.1722 16.8597 64.3265 23.7385C66.4807 30.6173 66.506 38.03 64.3988 44.9247C62.6041 50.7969 59.3402 56.0392 54.9694 60.1231C53.723 61.2878 51.7661 60.9879 50.7805 59.5956L48.6217 56.5457C47.6925 55.233 47.9796 53.4338 49.1246 52.3044C52.0065 49.4617 54.1652 45.8919 55.3799 41.9174C56.8822 37.0019 56.8642 31.7171 55.3284 26.8129C53.7925 21.9087 50.8169 17.6344 46.8239 14.5965C42.8308 11.5586 38.0232 9.91149 33.0832 9.88893C28.1433 9.86638 23.322 11.4695 19.3037 14.4708C15.2854 17.4721 12.2741 21.7192 10.6973 26.6091C9.12045 31.4991 9.05817 36.7836 10.5193 41.7126C11.7008 45.6986 13.8301 49.2884 16.6886 52.1575C17.8236 53.2966 18.0949 55.0979 17.1546 56.4023L14.9716 59.4306Z" fill="#00229B"/>
<path d="M10.6761 42.8585C10.6089 38.9946 13.7226 35.8262 17.5871 35.8262V35.8262C20.3836 35.8262 22.9045 37.5112 23.9738 40.0952L32.0054 59.5033C32.0582 59.6309 32.1827 59.7141 32.3208 59.7141V59.7141C32.4589 59.7141 32.5834 59.6309 32.6362 59.5033L40.6492 40.1401C41.7298 37.5289 44.2772 35.8262 47.1031 35.8262V35.8262C50.9607 35.8262 54.0879 38.9534 54.0879 42.8109V72.7337C54.0879 73.6587 53.338 74.4085 52.413 74.4085V74.4085C51.6511 74.4085 50.9852 73.8943 50.7926 73.1572L44.9683 50.8755C44.9427 50.7774 44.8541 50.709 44.7527 50.709V50.709C44.6615 50.709 44.5795 50.7646 44.5457 50.8493L36.3317 71.4471C35.6776 73.0874 34.0898 74.1636 32.3238 74.1636V74.1636C30.5548 74.1636 28.965 73.0838 28.3129 71.4393L20.0951 50.7161C20.0618 50.6322 19.9807 50.5771 19.8905 50.5771V50.5771C19.7886 50.5771 19.7001 50.647 19.6764 50.7461L14.489 72.434C14.3087 73.1878 13.6348 73.7196 12.8597 73.7196V73.7196C11.9458 73.7196 11.2006 72.9872 11.1847 72.0734L10.6761 42.8585Z" fill="#00229B"/>
<path d="M89.7061 28.3895C89.7061 26.0446 90.2308 23.959 91.2804 22.1327C92.33 20.2838 93.7877 18.8521 95.6536 17.8375C97.5428 16.8003 99.6769 16.2818 102.056 16.2818C104.971 16.2818 107.467 17.0258 109.543 18.5139C111.619 20.002 113.006 22.0312 113.706 24.6016H107.129C106.639 23.6095 105.939 22.8542 105.03 22.3356C104.143 21.817 103.129 21.5577 101.986 21.5577C100.143 21.5577 98.6507 22.1778 97.5078 23.4179C96.365 24.658 95.7935 26.3152 95.7935 28.3895C95.7935 30.4638 96.365 32.121 97.5078 33.3611C98.6507 34.6012 100.143 35.2212 101.986 35.2212C103.129 35.2212 104.143 34.9619 105.03 34.4433C105.939 33.9248 106.639 33.1694 107.129 32.1774H113.706C113.006 34.7477 111.619 36.7769 109.543 38.265C107.467 39.7306 104.971 40.4634 102.056 40.4634C99.6769 40.4634 97.5428 39.9561 95.6536 38.9415C93.7877 37.9043 92.33 36.4726 91.2804 34.6463C90.2308 32.82 89.7061 30.7344 89.7061 28.3895Z" fill="#00229B"/>
<path d="M125.709 40.5648C123.797 40.5648 122.071 40.1703 120.532 39.3811C119.015 38.592 117.814 37.4646 116.928 35.9991C116.065 34.5335 115.634 32.82 115.634 30.8584C115.634 28.9193 116.077 27.217 116.963 25.7515C117.849 24.2634 119.062 23.1248 120.601 22.3356C122.141 21.5465 123.867 21.1519 125.779 21.1519C127.692 21.1519 129.418 21.5465 130.957 22.3356C132.497 23.1248 133.709 24.2634 134.596 25.7515C135.482 27.217 135.925 28.9193 135.925 30.8584C135.925 32.7974 135.47 34.511 134.561 35.9991C133.674 37.4646 132.45 38.592 130.887 39.3811C129.348 40.1703 127.622 40.5648 125.709 40.5648ZM125.709 35.5594C126.852 35.5594 127.82 35.1536 128.613 34.3419C129.429 33.5302 129.838 32.369 129.838 30.8584C129.838 29.3477 129.441 28.1866 128.648 27.3749C127.878 26.5632 126.922 26.1573 125.779 26.1573C124.613 26.1573 123.645 26.5632 122.876 27.3749C122.106 28.164 121.721 29.3252 121.721 30.8584C121.721 32.369 122.094 33.5302 122.841 34.3419C123.61 35.1536 124.566 35.5594 125.709 35.5594Z" fill="#00229B"/>
<path d="M163.462 21.2195C165.888 21.2195 167.812 21.9298 169.235 23.3502C170.681 24.7707 171.404 26.7435 171.404 29.2688V40.2943H165.456V30.0467C165.456 28.8291 165.118 27.8934 164.442 27.2396C163.788 26.5632 162.879 26.225 161.713 26.225C160.546 26.225 159.625 26.5632 158.949 27.2396C158.296 27.8934 157.969 28.8291 157.969 30.0467V40.2943H152.022V30.0467C152.022 28.8291 151.683 27.8934 151.007 27.2396C150.354 26.5632 149.444 26.225 148.278 26.225C147.112 26.225 146.191 26.5632 145.514 27.2396C144.861 27.8934 144.535 28.8291 144.535 30.0467V40.2943H138.552V21.4225H144.535V23.7899C145.141 23.0008 145.934 22.3807 146.914 21.9298C147.893 21.4563 149.001 21.2195 150.237 21.2195C151.707 21.2195 153.013 21.5239 154.156 22.1327C155.322 22.7415 156.232 23.6095 156.885 24.7369C157.561 23.6997 158.482 22.8542 159.649 22.2003C160.815 21.5465 162.086 21.2195 163.462 21.2195Z" fill="#00229B"/>
<path d="M199.951 21.2195C202.376 21.2195 204.301 21.9298 205.723 23.3502C207.169 24.7707 207.892 26.7435 207.892 29.2688V40.2943H201.945V30.0467C201.945 28.8291 201.607 27.8934 200.93 27.2396C200.277 26.5632 199.368 26.225 198.201 26.225C197.035 26.225 196.114 26.5632 195.438 27.2396C194.784 27.8934 194.458 28.8291 194.458 30.0467V40.2943H188.51V30.0467C188.51 28.8291 188.172 27.8934 187.496 27.2396C186.843 26.5632 185.933 26.225 184.767 26.225C183.601 26.225 182.679 26.5632 182.003 27.2396C181.35 27.8934 181.024 28.8291 181.024 30.0467V40.2943H175.041V21.4225H181.024V23.7899C181.63 23.0008 182.423 22.3807 183.403 21.9298C184.382 21.4563 185.49 21.2195 186.726 21.2195C188.196 21.2195 189.502 21.5239 190.645 22.1327C191.811 22.7415 192.72 23.6095 193.373 24.7369C194.05 23.6997 194.971 22.8542 196.137 22.2003C197.303 21.5465 198.575 21.2195 199.951 21.2195Z" fill="#00229B"/>
<path d="M214.538 19.4609C213.489 19.4609 212.626 19.1678 211.95 18.5816C211.296 17.9728 210.97 17.2287 210.97 16.3494C210.97 15.4475 211.296 14.7035 211.95 14.1173C212.626 13.5085 213.489 13.2041 214.538 13.2041C215.565 13.2041 216.404 13.5085 217.057 14.1173C217.734 14.7035 218.072 15.4475 218.072 16.3494C218.072 17.2287 217.734 17.9728 217.057 18.5816C216.404 19.1678 215.565 19.4609 214.538 19.4609ZM217.512 21.4225V40.2943H211.53V21.4225H217.512Z" fill="#00229B"/>
<path d="M232.182 35.3903V40.2943H229.138C226.969 40.2943 225.278 39.787 224.065 38.7723C222.852 37.7352 222.246 36.0554 222.246 33.7331V26.225H219.867V21.4225H222.246V16.8229H228.228V21.4225H232.147V26.225H228.228V33.8007C228.228 34.3644 228.368 34.7703 228.648 35.0183C228.928 35.2663 229.394 35.3903 230.047 35.3903H232.182Z" fill="#00229B"/>
<path d="M91.8753 58.1415H95.1749V58.8142H90.9551V50.5649H91.8753V58.1415Z" fill="#00229B"/>
<path d="M102.982 55.2619C102.982 55.5452 102.973 55.7615 102.956 55.911H97.0008C97.0271 56.3988 97.1586 56.8158 97.3952 57.162C97.6318 57.5082 97.9429 57.7717 98.3285 57.9527C98.7141 58.1258 99.1348 58.2123 99.5905 58.2123C100.186 58.2123 100.686 58.0825 101.089 57.8229C101.501 57.5632 101.773 57.2131 101.904 56.7725H102.877C102.702 57.402 102.325 57.9173 101.746 58.3185C101.177 58.7119 100.458 58.9086 99.5905 58.9086C98.9157 58.9086 98.311 58.7749 97.7764 58.5074C97.2418 58.232 96.8211 57.8465 96.5144 57.3508C96.2164 56.8473 96.0675 56.2611 96.0675 55.5924C96.0675 54.9236 96.2164 54.3375 96.5144 53.8339C96.8124 53.3304 97.2287 52.9449 97.7633 52.6774C98.2979 52.4099 98.9069 52.2761 99.5905 52.2761C100.274 52.2761 100.87 52.4099 101.378 52.6774C101.895 52.9449 102.29 53.3068 102.561 53.7631C102.842 54.2116 102.982 54.7112 102.982 55.2619ZM102.049 55.2383C102.058 54.7584 101.948 54.3493 101.72 54.011C101.501 53.6727 101.199 53.417 100.813 53.2439C100.427 53.0708 100.007 52.9842 99.5511 52.9842C98.8675 52.9842 98.2847 53.1809 97.8027 53.5743C97.3207 53.9677 97.0534 54.5224 97.0008 55.2383H102.049Z" fill="#00229B"/>
<path d="M104.245 55.5806C104.245 54.9197 104.39 54.3414 104.679 53.8458C104.977 53.3422 105.384 52.9567 105.901 52.6892C106.427 52.4138 107.019 52.2761 107.676 52.2761C108.36 52.2761 108.947 52.4178 109.438 52.701C109.937 52.9842 110.296 53.3462 110.516 53.7867V52.3706H111.436V58.8142H110.516V57.3862C110.288 57.8268 109.924 58.1927 109.424 58.4838C108.934 58.767 108.347 58.9086 107.663 58.9086C107.014 58.9086 106.427 58.7709 105.901 58.4956C105.384 58.2202 104.977 57.8307 104.679 57.3272C104.39 56.8237 104.245 56.2415 104.245 55.5806ZM110.516 55.5924C110.516 55.0731 110.397 54.6168 110.161 54.2234C109.924 53.83 109.6 53.5271 109.188 53.3147C108.785 53.1023 108.338 52.996 107.847 52.996C107.339 52.996 106.883 53.0983 106.48 53.3029C106.077 53.5074 105.757 53.8064 105.52 54.1998C105.292 54.5853 105.178 55.0456 105.178 55.5806C105.178 56.1077 105.292 56.5719 105.52 56.9732C105.757 57.3665 106.077 57.6695 106.48 57.8819C106.883 58.0864 107.339 58.1887 107.847 58.1887C108.338 58.1887 108.785 58.0825 109.188 57.8701C109.6 57.6577 109.924 57.3547 110.161 56.9614C110.397 56.568 110.516 56.1117 110.516 55.5924Z" fill="#00229B"/>
<path d="M114.457 53.5153C114.658 53.1141 114.965 52.8033 115.377 52.583C115.798 52.3627 116.31 52.2525 116.915 52.2525V53.1141H116.665C115.999 53.1141 115.465 53.2753 115.061 53.5979C114.658 53.9205 114.457 54.4594 114.457 55.2147V58.8142H113.537V52.3706H114.457V53.5153Z" fill="#00229B"/>
<path d="M121.665 52.2525C122.524 52.2525 123.225 52.4925 123.768 52.9724C124.311 53.4445 124.583 54.1329 124.583 55.0377V58.8142H123.676V55.1321C123.676 54.4319 123.479 53.8969 123.084 53.5271C122.699 53.1573 122.169 52.9724 121.494 52.9724C120.801 52.9724 120.249 53.1691 119.837 53.5625C119.425 53.9559 119.22 54.5342 119.22 55.2973V58.8142H118.299V52.3706H119.22V53.4681C119.447 53.0747 119.776 52.7757 120.205 52.5712C120.635 52.3588 121.121 52.2525 121.665 52.2525Z" fill="#00229B"/>
<path d="M126.776 58.8732C126.583 58.8732 126.421 58.8142 126.29 58.6962C126.167 58.5782 126.105 58.4326 126.105 58.2595C126.105 58.0864 126.167 57.9448 126.29 57.8347C126.421 57.7167 126.583 57.6577 126.776 57.6577C126.96 57.6577 127.113 57.7167 127.236 57.8347C127.367 57.9448 127.433 58.0864 127.433 58.2595C127.433 58.4326 127.367 58.5782 127.236 58.6962C127.113 58.8142 126.96 58.8732 126.776 58.8732Z" fill="#00229B"/>
<path d="M139.844 52.9724C139.581 52.4296 139.177 52.0047 138.634 51.6979C138.1 51.3832 137.469 51.2258 136.741 51.2258C136.058 51.2258 135.444 51.3674 134.901 51.6507C134.357 51.9339 133.928 52.3391 133.612 52.8662C133.297 53.3855 133.139 53.9913 133.139 54.6837C133.139 55.376 133.297 55.9858 133.612 56.5129C133.928 57.04 134.357 57.4452 134.901 57.7285C135.444 58.0117 136.058 58.1533 136.741 58.1533C137.381 58.1533 137.955 58.0314 138.463 57.7875C138.98 57.5357 139.392 57.1817 139.699 56.7253C140.014 56.2611 140.194 55.7222 140.238 55.1085H136.373V54.4358H141.211V55.0377C141.167 55.7615 140.948 56.4185 140.553 57.0086C140.159 57.5908 139.629 58.051 138.963 58.3894C138.305 58.7277 137.565 58.8968 136.741 58.8968C135.891 58.8968 135.12 58.7198 134.427 58.3657C133.735 58.0038 133.187 57.5042 132.784 56.8669C132.39 56.2218 132.193 55.494 132.193 54.6837C132.193 53.8733 132.39 53.1495 132.784 52.5122C133.187 51.867 133.735 51.3674 134.427 51.0134C135.12 50.6515 135.891 50.4705 136.741 50.4705C137.723 50.4705 138.582 50.6908 139.318 51.1314C140.054 51.572 140.588 52.1857 140.921 52.9724H139.844Z" fill="#00229B"/>
<path d="M143.817 53.5153C144.018 53.1141 144.325 52.8033 144.737 52.583C145.157 52.3627 145.67 52.2525 146.275 52.2525V53.1141H146.025C145.359 53.1141 144.824 53.2753 144.421 53.5979C144.018 53.9205 143.817 54.4594 143.817 55.2147V58.8142H142.896V52.3706H143.817V53.5153Z" fill="#00229B"/>
<path d="M150.801 58.9086C150.126 58.9086 149.517 58.7749 148.974 58.5074C148.439 58.232 148.014 57.8465 147.699 57.3508C147.392 56.8473 147.238 56.2611 147.238 55.5924C147.238 54.9236 147.396 54.3414 147.712 53.8458C148.027 53.3422 148.457 52.9567 149 52.6892C149.543 52.4138 150.152 52.2761 150.827 52.2761C151.502 52.2761 152.111 52.4138 152.655 52.6892C153.207 52.9567 153.636 53.3422 153.943 53.8458C154.258 54.3414 154.416 54.9236 154.416 55.5924C154.416 56.2533 154.258 56.8355 153.943 57.339C153.627 57.8425 153.193 58.232 152.641 58.5074C152.089 58.7749 151.476 58.9086 150.801 58.9086ZM150.801 58.1887C151.274 58.1887 151.712 58.0943 152.116 57.9055C152.519 57.7088 152.843 57.4177 153.088 57.0322C153.342 56.6388 153.47 56.1589 153.47 55.5924C153.47 55.0259 153.347 54.5499 153.101 54.1644C152.856 53.771 152.532 53.4799 152.129 53.2911C151.726 53.0944 151.287 52.996 150.814 52.996C150.341 52.996 149.903 53.0944 149.5 53.2911C149.096 53.4799 148.772 53.771 148.527 54.1644C148.29 54.5499 148.172 55.0259 148.172 55.5924C148.172 56.1589 148.29 56.6388 148.527 57.0322C148.772 57.4177 149.092 57.7088 149.486 57.9055C149.89 58.0943 150.328 58.1887 150.801 58.1887Z" fill="#00229B"/>
<path d="M165.558 52.3706L163.31 58.8142H162.39L160.405 53.4091L158.42 58.8142H157.487L155.239 52.3706H156.172L157.96 57.9763L159.971 52.3706H160.892L162.877 57.9881L164.651 52.3706H165.558Z" fill="#00229B"/>
<path d="M166.971 58.8732C166.778 58.8732 166.616 58.8142 166.484 58.6962C166.362 58.5782 166.3 58.4326 166.3 58.2595C166.3 58.0864 166.362 57.9448 166.484 57.8347C166.616 57.7167 166.778 57.6577 166.971 57.6577C167.155 57.6577 167.308 57.7167 167.431 57.8347C167.562 57.9448 167.628 58.0864 167.628 58.2595C167.628 58.4326 167.562 58.5782 167.431 58.6962C167.308 58.8142 167.155 58.8732 166.971 58.8732Z" fill="#00229B"/>
<path d="M178.185 50.5649V51.2494H175.634V58.8142H174.714V51.2494H172.151V50.5649H178.185Z" fill="#00229B"/>
<path d="M182.78 58.9086C182.105 58.9086 181.496 58.7749 180.952 58.5074C180.418 58.232 179.993 57.8465 179.677 57.3508C179.37 56.8473 179.217 56.2611 179.217 55.5924C179.217 54.9236 179.375 54.3414 179.69 53.8458C180.006 53.3422 180.435 52.9567 180.979 52.6892C181.522 52.4138 182.131 52.2761 182.806 52.2761C183.481 52.2761 184.09 52.4138 184.633 52.6892C185.185 52.9567 185.615 53.3422 185.921 53.8458C186.237 54.3414 186.395 54.9236 186.395 55.5924C186.395 56.2533 186.237 56.8355 185.921 57.339C185.606 57.8425 185.172 58.232 184.62 58.5074C184.068 58.7749 183.454 58.9086 182.78 58.9086ZM182.78 58.1887C183.253 58.1887 183.691 58.0943 184.094 57.9055C184.497 57.7088 184.822 57.4177 185.067 57.0322C185.321 56.6388 185.448 56.1589 185.448 55.5924C185.448 55.0259 185.326 54.5499 185.08 54.1644C184.835 53.771 184.51 53.4799 184.107 53.2911C183.704 53.0944 183.266 52.996 182.793 52.996C182.32 52.996 181.881 53.0944 181.478 53.2911C181.075 53.4799 180.751 53.771 180.505 54.1644C180.269 54.5499 180.15 55.0259 180.15 55.5924C180.15 56.1589 180.269 56.6388 180.505 57.0322C180.751 57.4177 181.071 57.7088 181.465 57.9055C181.868 58.0943 182.306 58.1887 182.78 58.1887Z" fill="#00229B"/>
<path d="M191.083 52.2761C191.757 52.2761 192.345 52.4178 192.844 52.701C193.344 52.9842 193.703 53.3422 193.922 53.7749V52.3706H194.842V58.9794C194.842 59.5695 194.698 60.0927 194.408 60.549C194.128 61.0054 193.734 61.3555 193.225 61.5994C192.717 61.8511 192.139 61.977 191.49 61.977C190.57 61.977 189.803 61.7803 189.19 61.3869C188.585 60.9936 188.208 60.4586 188.059 59.7819H188.966C189.124 60.2304 189.422 60.5884 189.86 60.8559C190.307 61.1234 190.85 61.2571 191.49 61.2571C191.955 61.2571 192.371 61.1667 192.739 60.9857C193.107 60.8126 193.396 60.553 193.606 60.2068C193.817 59.8606 193.922 59.4515 193.922 58.9794V57.3862C193.694 57.8268 193.33 58.1927 192.831 58.4838C192.34 58.767 191.757 58.9086 191.083 58.9086C190.425 58.9086 189.834 58.7709 189.308 58.4956C188.791 58.2202 188.383 57.8307 188.085 57.3272C187.796 56.8237 187.651 56.2415 187.651 55.5806C187.651 54.9197 187.796 54.3414 188.085 53.8458C188.383 53.3422 188.791 52.9567 189.308 52.6892C189.834 52.4138 190.425 52.2761 191.083 52.2761ZM193.922 55.5924C193.922 55.0731 193.804 54.6168 193.567 54.2234C193.33 53.83 193.006 53.5271 192.594 53.3147C192.191 53.1023 191.744 52.996 191.253 52.996C190.745 52.996 190.289 53.0983 189.886 53.3029C189.483 53.5074 189.163 53.8064 188.927 54.1998C188.699 54.5853 188.585 55.0456 188.585 55.5806C188.585 56.1077 188.699 56.5719 188.927 56.9732C189.163 57.3665 189.483 57.6695 189.886 57.8819C190.289 58.0864 190.745 58.1887 191.253 58.1887C191.744 58.1887 192.191 58.0825 192.594 57.8701C193.006 57.6577 193.33 57.3547 193.567 56.9614C193.804 56.568 193.922 56.1117 193.922 55.5924Z" fill="#00229B"/>
<path d="M203.437 55.2619C203.437 55.5452 203.428 55.7615 203.411 55.911H197.456C197.482 56.3988 197.613 56.8158 197.85 57.162C198.087 57.5082 198.398 57.7717 198.783 57.9527C199.169 58.1258 199.59 58.2123 200.045 58.2123C200.641 58.2123 201.141 58.0825 201.544 57.8229C201.956 57.5632 202.228 57.2131 202.359 56.7725H203.332C203.157 57.402 202.78 57.9173 202.201 58.3185C201.632 58.7119 200.913 58.9086 200.045 58.9086C199.371 58.9086 198.766 58.7749 198.231 58.5074C197.697 58.232 197.276 57.8465 196.969 57.3508C196.671 56.8473 196.522 56.2611 196.522 55.5924C196.522 54.9236 196.671 54.3375 196.969 53.8339C197.267 53.3304 197.684 52.9449 198.218 52.6774C198.753 52.4099 199.362 52.2761 200.045 52.2761C200.729 52.2761 201.325 52.4099 201.833 52.6774C202.35 52.9449 202.745 53.3068 203.016 53.7631C203.297 54.2116 203.437 54.7112 203.437 55.2619ZM202.504 55.2383C202.512 54.7584 202.403 54.3493 202.175 54.011C201.956 53.6727 201.654 53.417 201.268 53.2439C200.882 53.0708 200.462 52.9842 200.006 52.9842C199.322 52.9842 198.74 53.1809 198.258 53.5743C197.776 53.9677 197.508 54.5224 197.456 55.2383H202.504Z" fill="#00229B"/>
<path d="M206.317 53.0668V57.0676C206.317 57.461 206.4 57.7324 206.567 57.8819C206.733 58.0314 207.027 58.1061 207.447 58.1061H208.289V58.8142H207.303C206.654 58.8142 206.172 58.6805 205.857 58.413C205.541 58.1376 205.383 57.6891 205.383 57.0676V53.0668H204.384V52.3706H205.383V50.7537H206.317V52.3706H208.289V53.0668H206.317Z" fill="#00229B"/>
<path d="M213.224 52.2525C213.768 52.2525 214.254 52.3548 214.683 52.5594C215.122 52.7639 215.463 53.0787 215.709 53.5035C215.963 53.9205 216.09 54.4319 216.09 55.0377V58.8142H215.183V55.1321C215.183 54.4319 214.986 53.8969 214.591 53.5271C214.206 53.1573 213.676 52.9724 213.001 52.9724C212.308 52.9724 211.756 53.1691 211.344 53.5625C210.932 53.9559 210.727 54.5342 210.727 55.2973V58.8142H209.806V50.0811H210.727V53.4681C210.954 53.0826 211.287 52.7836 211.726 52.5712C212.173 52.3588 212.672 52.2525 213.224 52.2525Z" fill="#00229B"/>
<path d="M224.619 55.2619C224.619 55.5452 224.61 55.7615 224.593 55.911H218.638C218.664 56.3988 218.796 56.8158 219.032 57.162C219.269 57.5082 219.58 57.7717 219.966 57.9527C220.351 58.1258 220.772 58.2123 221.228 58.2123C221.823 58.2123 222.323 58.0825 222.726 57.8229C223.138 57.5632 223.41 57.2131 223.541 56.7725H224.514C224.339 57.402 223.962 57.9173 223.383 58.3185C222.814 58.7119 222.095 58.9086 221.228 58.9086C220.553 58.9086 219.948 58.7749 219.413 58.5074C218.879 58.232 218.458 57.8465 218.151 57.3508C217.853 56.8473 217.704 56.2611 217.704 55.5924C217.704 54.9236 217.853 54.3375 218.151 53.8339C218.449 53.3304 218.866 52.9449 219.4 52.6774C219.935 52.4099 220.544 52.2761 221.228 52.2761C221.911 52.2761 222.507 52.4099 223.015 52.6774C223.532 52.9449 223.927 53.3068 224.198 53.7631C224.479 54.2116 224.619 54.7112 224.619 55.2619ZM223.686 55.2383C223.695 54.7584 223.585 54.3493 223.357 54.011C223.138 53.6727 222.836 53.417 222.45 53.2439C222.064 53.0708 221.644 52.9842 221.188 52.9842C220.505 52.9842 219.922 53.1809 219.44 53.5743C218.958 53.9677 218.69 54.5224 218.638 55.2383H223.686Z" fill="#00229B"/>
<path d="M227.223 53.5153C227.425 53.1141 227.731 52.8033 228.143 52.583C228.564 52.3627 229.077 52.2525 229.681 52.2525V53.1141H229.431C228.765 53.1141 228.231 53.2753 227.828 53.5979C227.425 53.9205 227.223 54.4594 227.223 55.2147V58.8142H226.303V52.3706H227.223V53.5153Z" fill="#00229B"/>
</svg>
