<svg width="500" height="157" viewBox="0 0 500 157" fill="none" xmlns="http://www.w3.org/2000/svg">
<path d="M30.1171 128.168C29.1199 129.518 27.2051 129.792 25.9188 128.714C15.2087 119.742 7.29147 107.755 3.17762 94.2171C-1.23571 79.6933 -1.04758 64.1221 3.71532 49.7134C8.47822 35.3047 17.5739 22.7906 29.7115 13.9469C41.8491 5.10333 56.412 0.379543 71.3334 0.446004C86.2548 0.512465 100.777 5.3658 112.838 14.3172C124.899 23.2686 133.887 35.8633 138.526 50.3139C143.165 64.7644 143.22 80.3367 138.682 94.8206C134.452 108.322 126.432 120.238 115.646 129.114C114.35 130.18 112.438 129.889 111.453 128.531L102.856 116.684C101.896 115.36 102.179 113.517 103.427 112.459C110.819 106.186 116.322 97.8807 119.26 88.5032C122.495 78.1769 122.456 67.0748 119.149 56.7724C115.842 46.47 109.434 37.4907 100.835 31.1088C92.2356 24.727 81.8824 21.2668 71.2443 21.2194C60.6062 21.1721 50.2237 24.5398 41.5703 30.8448C32.9168 37.1498 26.4321 46.0717 23.0365 56.3443C19.6408 66.6169 19.5066 77.7182 22.6531 88.0729C25.5106 97.4765 30.9419 105.83 38.2808 112.169C39.5187 113.238 39.7863 115.084 38.8141 116.399L30.1171 128.168Z" fill="#00229B"/>
<path d="M22.9818 89.9568C22.8421 82.1283 29.1499 75.707 36.9796 75.707H38.5545C44.1737 75.707 49.2484 79.0667 51.4428 84.2396L68.9196 125.437C69.0359 125.711 69.3049 125.889 69.6027 125.889C69.9005 125.889 70.1695 125.711 70.2858 125.437L87.7626 84.2396C89.957 79.0667 95.0317 75.707 100.651 75.707H102.478C110.21 75.707 116.478 81.975 116.478 89.707V153.142C116.478 155.139 114.859 156.759 112.861 156.759C111.224 156.759 109.791 155.659 109.367 154.078L96.8413 107.331C96.7847 107.119 96.593 106.972 96.3741 106.972C96.1777 106.972 96.0007 107.091 95.9264 107.273L78.2904 150.415C76.8491 153.94 73.4184 156.244 69.6094 156.244C65.7936 156.244 62.3583 153.932 60.9214 150.398L43.2771 106.993C43.204 106.813 43.029 106.695 42.8347 106.695C42.6148 106.695 42.4233 106.845 42.3709 107.059L31.2159 152.555C30.8191 154.173 29.3683 155.311 27.702 155.311C25.729 155.311 24.1198 153.731 24.0846 151.758L22.9818 89.9568Z" fill="#00229B"/>
<path d="M193.182 82.933C193.182 77.8833 194.312 73.392 196.572 69.4591C198.832 65.4776 201.971 62.3944 205.99 60.2094C210.058 57.9759 214.654 56.8591 219.777 56.8591C226.055 56.8591 231.43 58.4614 235.9 61.666C240.37 64.8707 243.359 69.2406 244.865 74.7758H230.701C229.647 72.6394 228.14 71.0128 226.181 69.8961C224.272 68.7793 222.087 68.2209 219.626 68.2209C215.658 68.2209 212.444 69.5562 209.983 72.2267C207.521 74.8972 206.291 78.4659 206.291 82.933C206.291 87.4 207.521 90.9687 209.983 93.6392C212.444 96.3097 215.658 97.645 219.626 97.645C222.087 97.645 224.272 97.0866 226.181 95.9699C228.14 94.8531 229.647 93.2265 230.701 91.0901H244.865C243.359 96.6254 240.37 100.995 235.9 104.2C231.43 107.356 226.055 108.934 219.777 108.934C214.654 108.934 210.058 107.841 205.99 105.657C201.971 103.423 198.832 100.34 196.572 96.4069C194.312 92.4739 193.182 87.9826 193.182 82.933Z" fill="#00229B"/>
<path d="M270.714 109.152C266.596 109.152 262.879 108.303 259.564 106.603C256.299 104.904 253.712 102.476 251.804 99.3201C249.945 96.1641 249.016 92.4739 249.016 88.2497C249.016 84.074 249.97 80.4081 251.879 77.2521C253.788 74.0475 256.4 71.5955 259.715 69.8961C263.03 68.1966 266.746 67.3469 270.865 67.3469C274.984 67.3469 278.7 68.1966 282.015 69.8961C285.33 71.5955 287.942 74.0475 289.851 77.2521C291.759 80.4081 292.714 84.074 292.714 88.2497C292.714 92.4254 291.734 96.1155 289.775 99.3201C287.867 102.476 285.23 104.904 281.865 106.603C278.55 108.303 274.833 109.152 270.714 109.152ZM270.714 98.3733C273.175 98.3733 275.26 97.4993 276.968 95.7514C278.726 94.0034 279.604 91.5028 279.604 88.2497C279.604 84.9965 278.751 82.496 277.043 80.748C275.385 79 273.326 78.1261 270.865 78.1261C268.354 78.1261 266.269 79 264.612 80.748C262.954 82.4474 262.125 84.948 262.125 88.2497C262.125 91.5028 262.929 94.0034 264.536 95.7514C266.194 97.4993 268.253 98.3733 270.714 98.3733Z" fill="#00229B"/>
<path d="M352.014 67.4926C357.238 67.4926 361.381 69.0221 364.445 72.081C367.559 75.1399 369.116 79.3885 369.116 84.8266V108.57H356.308V86.5017C356.308 83.8798 355.58 81.8648 354.124 80.4567C352.717 79 350.758 78.2717 348.247 78.2717C345.736 78.2717 343.752 79 342.295 80.4567C340.889 81.8648 340.185 83.8798 340.185 86.5017V108.57H327.378V86.5017C327.378 83.8798 326.649 81.8648 325.193 80.4567C323.786 79 321.827 78.2717 319.316 78.2717C316.805 78.2717 314.821 79 313.364 80.4567C311.958 81.8648 311.255 83.8798 311.255 86.5017V108.57H298.371V67.9296H311.255V73.0278C312.561 71.3284 314.268 69.9932 316.378 69.0221C318.487 68.0024 320.873 67.4926 323.535 67.4926C326.699 67.4926 329.512 68.1481 331.973 69.4591C334.485 70.77 336.444 72.6394 337.85 75.0671C339.307 72.8336 341.29 71.0128 343.802 69.6047C346.313 68.1966 349.051 67.4926 352.014 67.4926Z" fill="#00229B"/>
<path d="M430.592 67.4926C435.816 67.4926 439.959 69.0221 443.023 72.081C446.137 75.1399 447.694 79.3885 447.694 84.8266V108.57H434.886V86.5017C434.886 83.8798 434.158 81.8648 432.702 80.4567C431.295 79 429.336 78.2717 426.825 78.2717C424.314 78.2717 422.33 79 420.873 80.4567C419.467 81.8648 418.763 83.8798 418.763 86.5017V108.57H405.956V86.5017C405.956 83.8798 405.227 81.8648 403.771 80.4567C402.364 79 400.405 78.2717 397.894 78.2717C395.383 78.2717 393.399 79 391.942 80.4567C390.536 81.8648 389.833 83.8798 389.833 86.5017V108.57H376.949V67.9296H389.833V73.0278C391.139 71.3284 392.846 69.9932 394.956 69.0221C397.065 68.0024 399.451 67.4926 402.113 67.4926C405.277 67.4926 408.09 68.1481 410.551 69.4591C413.063 70.77 415.022 72.6394 416.428 75.0671C417.885 72.8336 419.868 71.0128 422.38 69.6047C424.891 68.1966 427.629 67.4926 430.592 67.4926Z" fill="#00229B"/>
<path d="M462.007 63.7053C459.746 63.7053 457.888 63.0741 456.431 61.8117C455.025 60.5007 454.322 58.8984 454.322 57.0048C454.322 55.0626 455.025 53.4603 456.431 52.1979C457.888 50.8869 459.746 50.2314 462.007 50.2314C464.217 50.2314 466.025 50.8869 467.431 52.1979C468.888 53.4603 469.616 55.0626 469.616 57.0048C469.616 58.8984 468.888 60.5007 467.431 61.8117C466.025 63.0741 464.217 63.7053 462.007 63.7053ZM468.411 67.9296V108.57H455.527V67.9296H468.411Z" fill="#00229B"/>
<path d="M500.001 98.0092V108.57H493.446C488.775 108.57 485.134 107.477 482.522 105.292C479.91 103.059 478.604 99.4415 478.604 94.4404V78.2717H473.481V67.9296H478.604V58.0245H491.487V67.9296H499.925V78.2717H491.487V94.5861C491.487 95.7999 491.789 96.6739 492.391 97.208C492.994 97.7421 493.999 98.0092 495.405 98.0092H500.001Z" fill="#00229B"/>
<path d="M197.854 147.004H204.959V148.452H195.872V130.688H197.854V147.004Z" fill="#00229B"/>
<path d="M221.772 140.802C221.772 141.412 221.753 141.878 221.716 142.2H208.891C208.948 143.251 209.231 144.149 209.741 144.894C210.25 145.64 210.92 146.207 211.751 146.597C212.581 146.97 213.487 147.156 214.468 147.156C215.752 147.156 216.827 146.877 217.696 146.317C218.583 145.758 219.168 145.004 219.451 144.056H221.546C221.168 145.411 220.357 146.521 219.111 147.385C217.884 148.232 216.337 148.656 214.468 148.656C213.015 148.656 211.713 148.368 210.562 147.791C209.41 147.198 208.505 146.368 207.844 145.301C207.202 144.216 206.882 142.954 206.882 141.514C206.882 140.074 207.202 138.812 207.844 137.727C208.486 136.643 209.382 135.813 210.533 135.237C211.685 134.661 212.996 134.373 214.468 134.373C215.94 134.373 217.224 134.661 218.318 135.237C219.432 135.813 220.281 136.592 220.866 137.575C221.47 138.541 221.772 139.616 221.772 140.802ZM219.762 140.752C219.781 139.718 219.545 138.837 219.054 138.109C218.583 137.38 217.932 136.829 217.101 136.457C216.271 136.084 215.365 135.897 214.383 135.897C212.911 135.897 211.656 136.321 210.618 137.168C209.58 138.015 209.005 139.21 208.891 140.752H219.762Z" fill="#00229B"/>
<path d="M224.492 141.489C224.492 140.065 224.803 138.82 225.426 137.753C226.068 136.668 226.945 135.838 228.059 135.262C229.191 134.669 230.465 134.373 231.881 134.373C233.353 134.373 234.617 134.678 235.674 135.288C236.75 135.897 237.524 136.677 237.995 137.626V134.576H239.977V148.452H237.995V145.377C237.505 146.326 236.721 147.114 235.646 147.741C234.589 148.351 233.324 148.656 231.852 148.656C230.456 148.656 229.191 148.359 228.059 147.766C226.945 147.173 226.068 146.334 225.426 145.25C224.803 144.166 224.492 142.912 224.492 141.489ZM237.995 141.514C237.995 140.396 237.741 139.413 237.231 138.566C236.721 137.719 236.023 137.067 235.136 136.609C234.268 136.152 233.305 135.923 232.249 135.923C231.154 135.923 230.173 136.143 229.304 136.584C228.436 137.024 227.747 137.668 227.238 138.515C226.747 139.345 226.502 140.337 226.502 141.489C226.502 142.624 226.747 143.623 227.238 144.488C227.747 145.335 228.436 145.987 229.304 146.444C230.173 146.885 231.154 147.105 232.249 147.105C233.305 147.105 234.268 146.877 235.136 146.419C236.023 145.962 236.721 145.309 237.231 144.462C237.741 143.615 237.995 142.632 237.995 141.514Z" fill="#00229B"/>
<path d="M246.483 137.041C246.917 136.177 247.577 135.508 248.464 135.033C249.37 134.559 250.474 134.322 251.776 134.322V136.177H251.239C249.804 136.177 248.653 136.524 247.785 137.219C246.917 137.914 246.483 139.074 246.483 140.701V148.452H244.501V134.576H246.483V137.041Z" fill="#00229B"/>
<path d="M262.005 134.322C263.854 134.322 265.364 134.839 266.534 135.872C267.704 136.889 268.289 138.371 268.289 140.32V148.452H266.336V140.523C266.336 139.015 265.911 137.863 265.062 137.067C264.232 136.27 263.09 135.872 261.637 135.872C260.146 135.872 258.957 136.296 258.07 137.143C257.183 137.99 256.739 139.235 256.739 140.879V148.452H254.758V134.576H256.739V136.939C257.23 136.092 257.938 135.448 258.862 135.008C259.787 134.551 260.835 134.322 262.005 134.322Z" fill="#00229B"/>
<path d="M273.012 148.579C272.597 148.579 272.247 148.452 271.964 148.198C271.7 147.944 271.568 147.631 271.568 147.258C271.568 146.885 271.7 146.58 271.964 146.343C272.247 146.089 272.597 145.962 273.012 145.962C273.408 145.962 273.738 146.089 274.003 146.343C274.286 146.58 274.427 146.885 274.427 147.258C274.427 147.631 274.286 147.944 274.003 148.198C273.738 148.452 273.408 148.579 273.012 148.579Z" fill="#00229B"/>
<path d="M301.153 135.872C300.587 134.703 299.718 133.788 298.548 133.127C297.397 132.45 296.038 132.111 294.472 132.111C293 132.111 291.679 132.416 290.508 133.026C289.338 133.636 288.414 134.508 287.734 135.643C287.055 136.762 286.715 138.066 286.715 139.557C286.715 141.048 287.055 142.361 287.734 143.496C288.414 144.632 289.338 145.504 290.508 146.114C291.679 146.724 293 147.029 294.472 147.029C295.849 147.029 297.086 146.766 298.18 146.241C299.294 145.699 300.181 144.937 300.841 143.954C301.521 142.954 301.908 141.794 302.002 140.472H293.679V139.023H304.097V140.32C304.003 141.878 303.531 143.293 302.681 144.564C301.832 145.818 300.69 146.809 299.256 147.537C297.841 148.266 296.246 148.63 294.472 148.63C292.641 148.63 290.98 148.249 289.489 147.486C287.998 146.707 286.819 145.631 285.951 144.259C285.101 142.87 284.677 141.302 284.677 139.557C284.677 137.812 285.101 136.253 285.951 134.881C286.819 133.492 287.998 132.416 289.489 131.653C290.98 130.874 292.641 130.484 294.472 130.484C296.585 130.484 298.435 130.959 300.02 131.907C301.606 132.856 302.757 134.178 303.474 135.872H301.153Z" fill="#00229B"/>
<path d="M309.709 137.041C310.143 136.177 310.803 135.508 311.69 135.033C312.596 134.559 313.7 134.322 315.002 134.322V136.177H314.465C313.03 136.177 311.879 136.524 311.011 137.219C310.143 137.914 309.709 139.074 309.709 140.701V148.452H307.727V134.576H309.709V137.041Z" fill="#00229B"/>
<path d="M324.749 148.656C323.296 148.656 321.985 148.368 320.814 147.791C319.663 147.198 318.748 146.368 318.068 145.301C317.408 144.216 317.078 142.954 317.078 141.514C317.078 140.074 317.417 138.82 318.097 137.753C318.776 136.668 319.701 135.838 320.871 135.262C322.041 134.669 323.353 134.373 324.806 134.373C326.259 134.373 327.571 134.669 328.741 135.262C329.93 135.838 330.855 136.668 331.515 137.753C332.195 138.82 332.534 140.074 332.534 141.514C332.534 142.937 332.195 144.191 331.515 145.275C330.836 146.36 329.902 147.198 328.713 147.791C327.524 148.368 326.203 148.656 324.749 148.656ZM324.749 147.105C325.769 147.105 326.712 146.902 327.58 146.495C328.448 146.072 329.147 145.445 329.675 144.615C330.223 143.768 330.496 142.734 330.496 141.514C330.496 140.294 330.232 139.269 329.704 138.439C329.175 137.592 328.477 136.965 327.609 136.558C326.74 136.135 325.797 135.923 324.778 135.923C323.759 135.923 322.815 136.135 321.947 136.558C321.079 136.965 320.38 137.592 319.852 138.439C319.342 139.269 319.088 140.294 319.088 141.514C319.088 142.734 319.342 143.768 319.852 144.615C320.38 145.445 321.069 146.072 321.918 146.495C322.787 146.902 323.73 147.105 324.749 147.105Z" fill="#00229B"/>
<path d="M356.529 134.576L351.689 148.452H349.707L345.432 136.812L341.158 148.452H339.148L334.307 134.576H336.317L340.167 146.648L344.498 134.576H346.48L350.754 146.673L354.576 134.576H356.529Z" fill="#00229B"/>
<path d="M359.571 148.579C359.155 148.579 358.806 148.452 358.523 148.198C358.259 147.944 358.127 147.631 358.127 147.258C358.127 146.885 358.259 146.58 358.523 146.343C358.806 146.089 359.155 145.962 359.571 145.962C359.967 145.962 360.297 146.089 360.562 146.343C360.845 146.58 360.986 146.885 360.986 147.258C360.986 147.631 360.845 147.944 360.562 148.198C360.297 148.452 359.967 148.579 359.571 148.579Z" fill="#00229B"/>
<path d="M383.72 130.688V132.162H378.228V148.452H376.246V132.162H370.726V130.688H383.72Z" fill="#00229B"/>
<path d="M393.615 148.656C392.162 148.656 390.85 148.368 389.68 147.791C388.529 147.198 387.613 146.368 386.934 145.301C386.273 144.216 385.943 142.954 385.943 141.514C385.943 140.074 386.283 138.82 386.962 137.753C387.642 136.668 388.567 135.838 389.737 135.262C390.907 134.669 392.218 134.373 393.672 134.373C395.125 134.373 396.437 134.669 397.607 135.262C398.796 135.838 399.72 136.668 400.381 137.753C401.06 138.82 401.4 140.074 401.4 141.514C401.4 142.937 401.06 144.191 400.381 145.275C399.702 146.36 398.767 147.198 397.578 147.791C396.389 148.368 395.068 148.656 393.615 148.656ZM393.615 147.105C394.634 147.105 395.578 146.902 396.446 146.495C397.314 146.072 398.012 145.445 398.541 144.615C399.088 143.768 399.362 142.734 399.362 141.514C399.362 140.294 399.098 139.269 398.569 138.439C398.041 137.592 397.342 136.965 396.474 136.558C395.606 136.135 394.662 135.923 393.643 135.923C392.624 135.923 391.681 136.135 390.812 136.558C389.944 136.965 389.246 137.592 388.718 138.439C388.208 139.269 387.953 140.294 387.953 141.514C387.953 142.734 388.208 143.768 388.718 144.615C389.246 145.445 389.935 146.072 390.784 146.495C391.652 146.902 392.596 147.105 393.615 147.105Z" fill="#00229B"/>
<path d="M411.495 134.373C412.948 134.373 414.213 134.678 415.289 135.288C416.364 135.897 417.138 136.668 417.61 137.6V134.576H419.592V148.808C419.592 150.079 419.28 151.205 418.657 152.188C418.054 153.171 417.204 153.925 416.11 154.45C415.015 154.992 413.769 155.263 412.373 155.263C410.391 155.263 408.74 154.84 407.419 153.993C406.116 153.145 405.305 151.993 404.984 150.536H406.937C407.277 151.502 407.919 152.273 408.862 152.849C409.825 153.425 410.995 153.713 412.373 153.713C413.373 153.713 414.27 153.518 415.062 153.129C415.855 152.756 416.478 152.197 416.931 151.451C417.384 150.706 417.61 149.825 417.61 148.808V145.377C417.119 146.326 416.336 147.114 415.26 147.741C414.203 148.351 412.948 148.656 411.495 148.656C410.08 148.656 408.806 148.359 407.673 147.766C406.56 147.173 405.682 146.334 405.041 145.25C404.418 144.166 404.106 142.912 404.106 141.489C404.106 140.065 404.418 138.82 405.041 137.753C405.682 136.668 406.56 135.838 407.673 135.262C408.806 134.669 410.08 134.373 411.495 134.373ZM417.61 141.514C417.61 140.396 417.355 139.413 416.846 138.566C416.336 137.719 415.638 137.067 414.751 136.609C413.883 136.152 412.92 135.923 411.863 135.923C410.769 135.923 409.787 136.143 408.919 136.584C408.051 137.024 407.362 137.668 406.853 138.515C406.362 139.345 406.116 140.337 406.116 141.489C406.116 142.624 406.362 143.623 406.853 144.488C407.362 145.335 408.051 145.987 408.919 146.444C409.787 146.885 410.769 147.105 411.863 147.105C412.92 147.105 413.883 146.877 414.751 146.419C415.638 145.962 416.336 145.309 416.846 144.462C417.355 143.615 417.61 142.632 417.61 141.514Z" fill="#00229B"/>
<path d="M438.1 140.802C438.1 141.412 438.082 141.878 438.044 142.2H425.22C425.276 143.251 425.559 144.149 426.069 144.894C426.579 145.64 427.249 146.207 428.079 146.597C428.909 146.97 429.815 147.156 430.797 147.156C432.08 147.156 433.156 146.877 434.024 146.317C434.911 145.758 435.496 145.004 435.779 144.056H437.874C437.496 145.411 436.685 146.521 435.439 147.385C434.213 148.232 432.665 148.656 430.797 148.656C429.343 148.656 428.041 148.368 426.89 147.791C425.739 147.198 424.833 146.368 424.172 145.301C423.531 144.216 423.21 142.954 423.21 141.514C423.21 140.074 423.531 138.812 424.172 137.727C424.814 136.643 425.71 135.813 426.862 135.237C428.013 134.661 429.325 134.373 430.797 134.373C432.269 134.373 433.552 134.661 434.647 135.237C435.76 135.813 436.609 136.592 437.195 137.575C437.798 138.541 438.1 139.616 438.1 140.802ZM436.09 140.752C436.109 139.718 435.873 138.837 435.383 138.109C434.911 137.38 434.26 136.829 433.429 136.457C432.599 136.084 431.693 135.897 430.712 135.897C429.24 135.897 427.985 136.321 426.947 137.168C425.909 138.015 425.333 139.21 425.22 140.752H436.09Z" fill="#00229B"/>
<path d="M444.302 136.075V144.691C444.302 145.538 444.481 146.123 444.84 146.444C445.199 146.766 445.831 146.927 446.737 146.927H448.549V148.452H446.425C445.029 148.452 443.991 148.164 443.311 147.588C442.632 146.995 442.292 146.029 442.292 144.691V136.075H440.141V134.576H442.292V131.094H444.302V134.576H448.549V136.075H444.302Z" fill="#00229B"/>
<path d="M459.177 134.322C460.347 134.322 461.395 134.542 462.319 134.983C463.263 135.423 463.999 136.101 464.528 137.016C465.075 137.914 465.349 139.015 465.349 140.32V148.452H463.395V140.523C463.395 139.015 462.971 137.863 462.121 137.067C461.291 136.27 460.149 135.872 458.696 135.872C457.205 135.872 456.016 136.296 455.129 137.143C454.242 137.99 453.798 139.235 453.798 140.879V148.452H451.817V129.646H453.798V136.939C454.289 136.109 455.006 135.465 455.95 135.008C456.912 134.551 457.988 134.322 459.177 134.322Z" fill="#00229B"/>
<path d="M483.716 140.802C483.716 141.412 483.697 141.878 483.659 142.2H470.835C470.892 143.251 471.175 144.149 471.685 144.894C472.194 145.64 472.864 146.207 473.694 146.597C474.525 146.97 475.431 147.156 476.412 147.156C477.695 147.156 478.771 146.877 479.639 146.317C480.526 145.758 481.112 145.004 481.395 144.056H483.489C483.112 145.411 482.301 146.521 481.055 147.385C479.828 148.232 478.281 148.656 476.412 148.656C474.959 148.656 473.657 148.368 472.505 147.791C471.354 147.198 470.448 146.368 469.788 145.301C469.146 144.216 468.825 142.954 468.825 141.514C468.825 140.074 469.146 138.812 469.788 137.727C470.429 136.643 471.326 135.813 472.477 135.237C473.628 134.661 474.94 134.373 476.412 134.373C477.884 134.373 479.168 134.661 480.262 135.237C481.376 135.813 482.225 136.592 482.81 137.575C483.414 138.541 483.716 139.616 483.716 140.802ZM481.706 140.752C481.725 139.718 481.489 138.837 480.998 138.109C480.526 137.38 479.875 136.829 479.045 136.457C478.215 136.084 477.309 135.897 476.327 135.897C474.855 135.897 473.6 136.321 472.562 137.168C471.524 138.015 470.948 139.21 470.835 140.752H481.706Z" fill="#00229B"/>
<path d="M489.323 137.041C489.757 136.177 490.418 135.508 491.305 135.033C492.211 134.559 493.315 134.322 494.617 134.322V136.177H494.079C492.645 136.177 491.494 136.524 490.625 137.219C489.757 137.914 489.323 139.074 489.323 140.701V148.452H487.342V134.576H489.323V137.041Z" fill="#00229B"/>
</svg>
